<svg width="32" height="32" viewBox="0 0 32 32" fill="none" xmlns="http://www.w3.org/2000/svg">
<circle cx="16" cy="16" r="16" fill="url(#paint0_linear_217_3)"/>
<path d="M12.0114 22V10.3636H16.6705C17.5265 10.3636 18.2405 10.4905 18.8125 10.7443C19.3845 10.9981 19.8144 11.3504 20.1023 11.8011C20.3902 12.2481 20.5341 12.7633 20.5341 13.3466C20.5341 13.8011 20.4432 14.2008 20.2614 14.5455C20.0795 14.8864 19.8295 15.1667 19.5114 15.3864C19.197 15.6023 18.8371 15.7557 18.4318 15.8466V15.9602C18.875 15.9792 19.2898 16.1042 19.6761 16.3352C20.0663 16.5663 20.3826 16.8902 20.625 17.3068C20.8674 17.7197 20.9886 18.2121 20.9886 18.7841C20.9886 19.4015 20.8352 19.9527 20.5284 20.4375C20.2254 20.9186 19.7765 21.2992 19.1818 21.5795C18.5871 21.8598 17.8542 22 16.983 22H12.0114ZM14.4716 19.9886H16.4773C17.1629 19.9886 17.6629 19.858 17.9773 19.5966C18.2917 19.3314 18.4489 18.9792 18.4489 18.5398C18.4489 18.2178 18.3712 17.9337 18.2159 17.6875C18.0606 17.4413 17.839 17.2481 17.5511 17.108C17.267 16.9678 16.928 16.8977 16.5341 16.8977H14.4716V19.9886ZM14.4716 15.233H16.2955C16.6326 15.233 16.9318 15.1742 17.1932 15.0568C17.4583 14.9356 17.6667 14.7652 17.8182 14.5455C17.9735 14.3258 18.0511 14.0625 18.0511 13.7557C18.0511 13.3352 17.9015 12.9962 17.6023 12.7386C17.3068 12.4811 16.8864 12.3523 16.3409 12.3523H14.4716V15.233Z" fill="white"/>
<defs>
<linearGradient id="paint0_linear_217_3" x1="16" y1="0" x2="16" y2="32" gradientUnits="userSpaceOnUse">
<stop stop-color="#1F2937"/>
<stop offset="0.9999" stop-color="#111827"/>
<stop offset="1" stop-color="#CC00FF"/>
</linearGradient>
</defs>
</svg>
